ply
format ascii 1.0
comment python generated
element vertex 24
property float x
property float y
property float z
element face 2
property list uchar int vertex_indices
end_header
3.0 1.0 0.0
4.0 2.0 0.0
5.0 3.0 0.0
4.0 3.0 0.0
5.0 4.0 0.0
4.0 5.0 0.0
3.0 5.0 0.0
3.0 6.0 0.0
4.0 7.0 0.0
5.0 6.0 0.0
6.0 5.0 0.0
7.0 4.0 0.0
6.0 3.0 0.0
6.0 2.0 0.0
5.0 2.0 0.0
4.0 1.0 0.0
6.0 6.0 0.0
7.0 6.0 0.0
8.0 6.0 0.0
7.0 5.0 0.0
8.0 4.0 0.0
9.0 3.0 0.0
8.0 3.0 0.0
7.0 2.0 0.0
16 0 1 2 3 4 5 6 7 8 9 10 11 12 13 14 15
13 16 17 18 19 20 21 22 23 13 12 11 10 9