ply
format ascii 1.0
comment python generated
element vertex 35
property float x
property float y
property float z
element face 6
property list uchar int vertex_indices
end_header
318.347 223.339 0
312.196 236.667 0
313.733 255.635 0
300.747 259.394 0
293.912 259.394 0
293.228 244.015 0
291.177 227.952 0
301.943 226.756 0
336.631 244.869 0
336.631 256.147 0
337.315 264.691 0
326.891 259.223 0
330.138 224.022 0
339.024 227.611 0
355.086 233.079 0
355.599 249.141 0
355.086 261.445 0
354.403 271.526 0
354.403 282.121 0
338.682 283.659 0
314.759 268.963 0
329.454 284.171 0
315.613 284.855 0
274.944 275.969 0
271.526 267.767 0
290.494 262.641 0
294.253 286.393 0
276.14 287.418 0
265.033 288.614 0
249.654 289.64 0
237.522 289.981 0
223.168 286.051 0
234.446 276.995 0
244.528 268.451 0
257.002 267.425 0
7 22 20 2 11 10 19 21
9 11 2 1 0 12 13 8 9 10
9 27 23 24 25 3 2 20 22 26
8 3 4 5 6 7 0 1 2
10 19 10 9 8 13 14 15 16 17 18
10 27 28 29 30 31 32 33 34 24 23
