ply
format ascii 1.0
comment python generated
element vertex 38
property float x
property float y
property float z
element face 7
property list uchar int vertex_indices
end_header
525.1105686387134 240.9391154508903 0
528.8699023549684 245.38196438828263 0
516.2248707639288 242.30614589316485 0
318.347214244687 223.33859850660542 0
312.1955772544515 236.66714531878233 0
313.73348650201035 255.63469270534176 0
300.7466973004021 259.3940264215968 0
293.9115450890293 259.3940264215968 0
293.228029867892 244.01493394600806 0
291.1774842044802 227.95232624928204 0
301.94284893739234 226.7561746122918 0
336.63124641010916 244.86932797242966 0
336.63124641010916 256.14732912119473 0
337.3147616312464 264.6912693854107 0
326.89115450890296 259.2231476163125 0
330.137851809305 224.0221137277427 0
339.02354968408963 227.6105686387134 0
355.0861573808156 233.07869040781162 0
355.5987937966686 249.14129810453764 0
355.0861573808156 261.44457208500864 0
354.40264215967835 271.52642159678345 0
354.40264215967835 282.1209075244113 0
338.68179207352097 283.6588167719701 0
314.7587593337163 268.9632395175187 0
329.45433658816773 284.1714531878231 0
315.61315336013786 284.85496840896036 0
274.94399770246986 275.9692705341758 0
271.52642159678345 267.76708788052844 0
290.49396898334294 262.6407237219989 0
294.25330269959795 286.39287765651926 0
276.1401493394601 287.4181504882252 0
265.03302699597936 288.61430212521543 0
249.6539345203906 289.6395749569213 0
237.52153934520393 289.98133256748997 0
223.1677197013211 286.0511200459506 0
234.44572085008616 276.99454336588167 0
244.52757036186102 268.4506031016657 0
257.0017231476163 267.42533026995983 0
10 31 32 33 34 35 36 37 27 26 30
8 4 5 6 7 8 9 10 3
3 0 1 2
9 5 4 3 15 16 11 12 13 14
10 17 18 19 20 21 22 13 12 11 16
9 26 27 28 6 5 23 25 29 30
7 25 23 5 14 13 22 24
