ply
format ascii 1.0
comment python generated
element vertex 78
property float x
property float y
property float z
element face 8
property list uchar int vertex_indices
end_header
322.048 189.664 0
344.258 198.723 0
367.638 208.951 0
393.355 243.143 0
411.766 278.504 0
427.254 290.486 0
445.958 318.249 0
475.474 336.952 0
495.639 368.514 0
515.511 396.861 0
541.52 412.935 0
565.776 429.3 0
595.0 450.049 0
608.0 448.0 0
608.0 544.0 0
512.0 544.0 0
448.0 544.0 0
384.0 544.0 0
336.0 544.0 0
332.861 426.085 0
311.528 406.798 0
281.719 393.355 0
242.267 375.528 0
258.048 342.505 0
269.737 316.203 0
286.395 282.596 0
294.87 260.678 0
312.696 217.719 0
216.842 413.227 0
196.677 442.743 0
163.946 492.132 0
139.983 527.493 0
128.0 544.0 0
-16.0 544.0 0
-16.0 400.0 0
0.0 401.245 0
9.05943 368.514 0
22.7947 307.436 0
31.5619 272.66 0
66.3384 253.956 0
76.5668 231.746 0
75.6901 201.938 0
110.759 229.993 0
144.951 245.189 0
175.052 262.139 0
195.216 305.098 0
177.682 334.907 0
196.385 360.039 0
219.18 369.975 0
388.971 129.462 0
453.556 157.517 0
608.0 320.0 0
218.011 118.357 0
243.143 130.339 0
263.892 135.015 0
285.226 143.49 0
304.514 152.841 0
322.633 161.609 0
303.929 181.481 0
285.518 175.344 0
268.861 167.453 0
252.495 160.44 0
224.148 147.289 0
194.047 138.814 0
190.54 102.284 0
79.4892 161.316 0
108.421 110.759 0
161.024 93.5167 0
38.2834 8.47495 0
76.5668 7.30599 0
121.279 7.01375 0
155.472 0.0 0
175.052 2.33792 0
202.23 37.9912 0
208.951 67.7996 0
-16.0 -16.0 0
32.0 -16.0 0
608.0 -16.0 0
22 41 42 43 44 45 46 47 48 22 28 29 30 31 32 33 34 35 36 37 38 39 40
28 23 24 25 26 27 0 1 2 3 4 5 6 7 8 9 10 11 12 13 14 15 16 17 18 19 20 21 22
14 64 52 53 54 55 56 57 0 58 59 60 61 62 63
21 69 70 71 72 73 74 64 67 66 65 41 40 39 38 37 36 35 34 75 76 68
25 63 62 61 60 59 58 0 27 26 25 24 23 22 48 47 46 45 44 43 42 41 65 66 67 64
20 76 77 51 50 49 0 57 56 55 54 53 52 64 74 73 72 71 70 69 68
10 21 20 19 18 32 31 30 29 28 22
17 12 11 10 9 8 7 6 5 4 3 2 1 0 49 50 51 13
