ply
format ascii 1.0
comment python generated
element vertex 31
property float x
property float y
property float z
element face 2
property list uchar int vertex_indices
end_header
218.01080550098231 118.35707269155206 0
243.14341846758347 130.33889980353635 0
263.89243614931235 135.0147347740668 0
285.22593320235757 143.48968565815323 0
304.51375245579567 152.84135559921413 0
322.6326129666012 161.60854616895872 0
322.04813359528487 189.66355599214145 0
303.92927308447935 181.48084479371315 0
285.5181728880157 175.34381139489193 0
268.86051080550095 167.4533398821218 0
252.4950884086444 160.4395874263261 0
224.14783889980353 147.28880157170923 0
194.04715127701374 138.8138506876228 0
190.5402750491159 102.28388998035363 0
312.696463654224 217.71856581532415 0
294.8698428290766 260.6777996070727 0
286.39489194499015 282.5957760314342 0
269.73722986247543 316.2033398821218 0
258.0476424361493 342.5049115913556 0
242.26669941060902 375.5279960707269 0
219.17976424361493 369.97544204322196 0
196.38506876227896 360.03929273084475 0
177.68172888015715 334.9066797642436 0
195.21611001964635 305.098231827112 0
175.05157170923377 262.13899803536344 0
144.950884086444 245.18909626719056 0
110.75884086444007 229.9926326129666 0
75.69007858546169 201.9376227897839 0
79.48919449901767 161.3163064833006 0
108.42092337917485 110.75884086444007 0
161.02406679764243 93.51669941060904 0
25 13 12 11 10 9 8 7 6 14 15 16 17 18 19 20 21 22 23 24 25 26 27 28 29 30
14 13 0 1 2 3 4 5 6 7 8 9 10 11 12
