ply
format ascii 1.0
comment python generated
element vertex 106
property float x
property float y
property float z
element face 10
property list uchar int vertex_indices
end_header
331.718 308.933 0
352.839 312.871 0
347.135 322.5 0
412.159 279.428 0
411.226 297.03 0
386.283 281.501 0
365.982 261.931 0
351.07 257.998 0
365.05 249.922 0
544.574 251.269 0
532.568 246.091 0
525.838 244.124 0
509.061 248.99 0
500.373 249.404 0
493.216 249.404 0
484.116 253.03 0
469.725 255.929 0
459.678 259.965 0
448.193 266.797 0
437.103 272.077 0
429.441 277.359 0
372.822 272.288 0
364.434 237.911 0
375.919 224.661 0
398.904 216.896 0
408.114 218.449 0
418.683 222.485 0
432.143 225.593 0
444.67 232.011 0
461.432 231.908 0
476.344 232.221 0
484.527 232.631 0
500.783 228.595 0
514.243 228.492 0
524.385 235.222 0
531.114 241.64 0
554.211 270.838 0
552.851 278.393 0
558.649 298.582 0
552.442 303.242 0
544.779 306.761 0
538.05 313.388 0
541.983 321.358 0
531.936 338.649 0
527.181 349.107 0
523.863 364.739 0
515.696 373.538 0
508.129 383.166 0
500.989 392.898 0
488.982 405.323 0
472.727 418.162 0
466.091 425.824 0
461.336 433.071 0
447.877 441.144 0
441.763 447.976 0
440.737 428.723 0
420.547 417.645 0
415.681 412.779 0
408.952 398.387 0
421.368 392.795 0
425.096 375.919 0
425.507 356.662 0
430.689 347.448 0
434.101 340.616 0
433.074 329.85 0
428.208 314.629 0
428.619 296.513 0
430.894 285.743 0
552.757 259.863 0
558.379 276.696 0
558.144 282.434 0
500.262 215.345 0
511.762 206.025 0
525.727 210.787 0
532.979 220.001 0
546.438 236.774 0
502.236 218.552 0
558.555 267.627 0
558.555 272.39 0
276.631 249.819 0
271.26 227.042 0
263.487 217.829 0
247.437 191.842 0
228.085 169.066 0
293.93 178.485 0
323.328 179.52 0
335.857 186.664 0
354.071 189.046 0
372.918 189.772 0
392.08 189.255 0
411.842 194.014 0
424.797 192.774 0
442.08 200.334 0
455.128 203.853 0
468.588 210.269 0
484.416 211.822 0
336.267 259.653 0
323.328 261.312 0
312.775 262.552 0
299.316 258.618 0
323.013 290.197 0
308.527 279.74 0
295.999 272.181 0
282.018 256.237 0
373.438 295.166 0
357.594 309.66 0
3 7 8 6
17 100 101 102 103 79 99 98 97 96 7 6 21 5 104 105 1 0
3 5 3 4
11 71 72 73 74 75 68 9 35 34 33 76
44 9 68 36 37 38 39 40 41 42 43 44 45 46 47 48 49 50 51 52 53 54 55 56 57 58 59 60 61 62 63 64 65 66 67 19 18 17 16 15 14 13 12 11 10
4 36 69 70 37
5 36 68 77 78 69
37 71 76 33 32 31 30 29 28 27 26 25 24 23 22 8 7 96 97 98 99 79 80 81 82 83 84 85 86 87 88 89 90 91 92 93 94 95
31 33 34 35 9 10 11 12 13 14 15 16 17 18 19 20 3 5 21 6 8 22 23 24 25 26 27 28 29 30 31 32
3 2 0 1
