ply
format ascii 1.0
comment python generated
element vertex 117
property float x
property float y
property float z
element face 14
property list uchar int vertex_indices
end_header
329.485 0.0 0
339.124 22.0144 0
345.258 49.6004 0
329.485 39.0656 0
301.443 36.5468 0
-16.0 32.0 0
-16.0 -16.0 0
320.0 -16.0 0
44.6907 201.551 0
81.4948 181.704 0
121.804 166.32 0
168.247 160.503 0
135.825 210.24 0
121.804 204.982 0
116.546 204.982 0
116.546 219.003 0
70.9794 304.003 0
57.8351 326.787 0
38.5567 352.199 0
30.6701 372.354 0
0.0 394.261 0
23.6598 437.199 0
22.7835 480.0 0
-16.0 480.0 0
-16.0 208.0 0
220.825 167.666 0
240.103 170.218 0
272.526 172.513 0
294.433 179.868 0
313.711 184.796 0
330.361 187.324 0
347.01 187.871 0
353.867 187.863 0
347.887 195.236 0
340.0 214.129 0
334.742 229.084 0
334.742 247.043 0
327.732 262.296 0
310.206 274.245 0
304.948 289.23 0
300.567 310.049 0
294.433 329.835 0
273.402 355.721 0
269.021 383.419 0
258.505 408.6 0
240.103 431.232 0
219.072 450.097 0
208.0 480.0 0
608.0 224.0 0
556.443 215.475 0
535.412 202.6 0
517.01 190.578 0
495.103 181.082 0
472.32 169.187 0
455.67 155.511 0
481.959 161.196 0
502.99 156.969 0
527.526 153.459 0
558.196 152.942 0
595.0 159.276 0
608.0 160.0 0
368.0 480.0 0
378.557 402.475 0
380.309 366.381 0
383.814 337.992 0
391.701 309.228 0
407.474 285.84 0
416.237 269.299 0
444.278 263.135 0
460.052 271.151 0
485.464 282.238 0
495.979 309.843 0
608.0 320.0 0
608.0 480.0 0
401.34 261.713 0
389.072 251.702 0
377.68 240.07 0
371.546 223.038 0
372.423 205.196 0
376.804 175.769 0
397.835 172.221 0
415.361 181.956 0
429.381 211.268 0
435.515 227.916 0
429.381 249.623 0
364.536 174.709 0
360.155 187.856 0
347.887 128.336 0
361.031 124.857 0
361.031 108.614 0
357.526 78.0051 0
576.0 -16.0 0
490.722 56.3352 0
482.835 73.5397 0
471.443 88.3057 0
450.412 102.287 0
430.258 110.892 0
414.485 124.671 0
401.34 135.945 0
386.443 137.235 0
378.557 152.486 0
343.505 141.308 0
608.0 -16.0 0
441.649 148.773 0
426.753 150.21 0
409.227 149.595 0
395.206 150.477 0
378.557 163.537 0
365.412 164.378 0
363.66 152.804 0
317.216 173.689 0
352.0 -16.0 0
384.0 -16.0 0
416.0 -16.0 0
448.0 -16.0 0
480.0 -16.0 0
512.0 -16.0 0
17 11 12 13 14 15 16 17 18 19 20 21 22 23 24 8 9 10
25 67 84 83 82 81 80 79 107 100 106 105 104 103 54 53 52 51 50 49 48 72 71 70 69 68
12 67 74 75 76 77 78 79 80 81 82 83 84
8 5 6 7 0 1 2 3 4
20 101 110 29 28 27 26 25 11 10 9 8 24 5 4 3 2 90 89 88 87
3 86 32 85
35 47 22 21 20 19 18 17 16 15 14 13 12 11 25 26 27 28 29 30 31 32 33 34 35 36 37 38 39 40 41 42 43 44 45 46
22 99 98 97 96 95 94 93 92 91 102 60 59 58 57 56 55 54 103 104 105 106 100
13 67 68 69 70 71 72 73 61 62 63 64 65 66
25 87 88 89 90 2 1 0 7 111 112 113 114 115 116 91 92 93 94 95 96 97 98 99 100 101
13 49 50 51 52 53 54 55 56 57 58 59 60 48
10 101 100 109 108 85 32 31 30 29 110
6 85 108 109 100 107 79
31 47 46 45 44 43 42 41 40 39 38 37 36 35 34 33 32 86 85 79 78 77 76 75 74 67 66 65 64 63 62 61
