ply
format ascii 1.0
comment python generated
element vertex 24
property float x
property float y
property float z
element face 4
property list uchar int vertex_indices
end_header
360.155 187.856 0
353.867 187.863 0
364.536 174.709 0
343.505 141.308 0
378.557 152.486 0
363.66 152.804 0
365.412 164.378 0
347.01 187.871 0
330.361 187.324 0
313.711 184.796 0
317.216 173.689 0
376.804 175.769 0
397.835 172.221 0
415.361 181.956 0
429.381 211.268 0
435.515 227.916 0
429.381 249.623 0
416.237 269.299 0
401.34 261.713 0
389.072 251.702 0
377.68 240.07 0
371.546 223.038 0
372.423 205.196 0
378.557 163.537 0
10 3 4 5 6 2 1 7 8 9 10
12 11 12 13 14 15 16 17 18 19 20 21 22
3 0 1 2
6 4 23 11 2 6 5
