ply
format ascii 1.0
comment python generated
element vertex 33
property float x
property float y
property float z
element face 7
property list uchar int vertex_indices
end_header
339.0274599542334 397.57437070938215 0
329.4965675057208 420.720823798627 0
318.604118993135 446.59038901601826 0
307.7116704805492 479.2677345537757 0
288.649885583524 465.65217391304344 0
279.1189931350114 442.5057208237986 0
268.2265446224256 417.99771167048056 0
255.97254004576658 398.9359267734554 0
247.80320366132722 373.06636155606407 0
243.71853546910754 356.72768878718534 0
243.71853546910754 334.9427917620137 0
249.16475972540044 303.6270022883295 0
265.50343249427914 307.7116704805492 0
284.5652173913043 315.88100686498854 0
299.5423340961098 340.3890160183066 0
294.0961098398169 364.8970251716247 0
315.88100686498854 386.68192219679634 0
359.4508009153318 371.70480549199084 0
322.68878718535467 359.4508009153318 0
340.3890160183066 354.0045766590389 0
386.68192219679634 389.4050343249428 0
403.02059496567506 405.7437070938215 0
368.9816933638444 405.7437070938215 0
382.59725400457666 344.4736842105263 0
364.8970251716247 347.19679633867275 0
329.4965675057208 318.604118993135 0
367.62013729977116 332.21967963386726 0
313.1578947368421 326.77345537757435 0
223.29519450800913 240.99542334096108 0
257.33409610983983 265.50343249427914 0
285.92677345537754 279.1189931350114 0
298.1807780320366 300.90389016018304 0
245.08009153318076 285.92677345537754 0
17 12 13 14 15 16 0 1 2 3 4 5 6 7 8 9 10 11
5 14 27 25 19 18
5 25 26 23 24 19
5 20 21 22 0 17
7 16 15 14 18 19 17 0
4 24 23 17 19
11 28 29 30 31 25 27 14 13 12 11 32
