ply
format ascii 1.0
comment python generated
element vertex 97
property float x
property float y
property float z
element face 16
property list uchar int vertex_indices
end_header
337.666 476.545 0
367.62 483.352 0
389.405 507.86 0
417.998 529.645 0
435.698 575.938 0
448.0 688.0 0
336.0 688.0 0
329.497 540.538 0
307.712 479.268 0
608.0 672.0 0
595.0 673.97 0
575.938 646.739 0
588.192 609.977 0
581.384 577.3 0
562.323 550.069 0
537.815 522.838 0
509.222 496.968 0
481.991 471.098 0
465.652 452.037 0
435.698 431.613 0
403.021 405.744 0
439.783 398.936 0
469.737 385.32 0
488.799 363.535 0
608.0 368.0 0
-16.0 688.0 0
-16.0 384.0 0
167.471 377.151 0
159.302 343.112 0
163.387 322.689 0
190.618 311.796 0
219.211 310.435 0
249.165 303.627 0
243.719 334.943 0
243.719 356.728 0
247.803 373.066 0
255.973 398.936 0
268.227 417.998 0
279.119 442.506 0
288.65 465.652 0
339.027 397.574 0
329.497 420.721 0
318.604 446.59 0
265.503 307.712 0
284.565 315.881 0
299.542 340.389 0
294.096 364.897 0
315.881 386.682 0
368.982 405.744 0
608.0 688.0 0
359.451 371.705 0
322.689 359.451 0
340.389 354.005 0
386.682 389.405 0
382.597 344.474 0
364.897 347.197 0
405.744 326.773 0
428.89 307.712 0
452.037 291.373 0
471.098 279.119 0
480.629 249.165 0
465.652 227.38 0
475.183 202.872 0
491.522 181.087 0
496.0 -16.0 0
608.0 -16.0 0
329.497 318.604 0
367.62 332.22 0
336.304 287.288 0
348.558 249.165 0
355.366 219.211 0
360.812 197.426 0
368.0 -16.0 0
221.934 226.018 0
224.657 200.149 0
211.041 159.302 0
201.51 141.602 0
179.725 93.9474 0
178.364 55.8238 0
168.833 29.9542 0
159.302 0.0 0
160.0 -16.0 0
298.181 300.904 0
285.927 279.119 0
257.334 265.503 0
223.295 240.995 0
313.158 326.773 0
245.08 285.927 0
-16.0 304.0 0
-16.0 -16.0 0
206.957 240.995 0
179.725 251.888 0
138.879 260.057 0
111.648 266.865 0
76.2471 275.034 0
50.3776 279.119 0
0.0 303.627 0
16 9 10 11 12 13 14 15 16 17 18 19 20 21 22 23 24
18 27 28 29 30 31 32 33 34 35 36 37 38 39 8 7 6 25 26
18 65 24 23 22 21 20 53 50 54 56 57 58 59 60 61 62 63 64
17 43 44 45 46 47 40 41 42 8 39 38 37 36 35 34 33 32
24 40 48 20 19 18 17 16 15 14 13 12 11 10 9 49 5 4 3 2 1 0 8 42 41
5 52 51 45 86 66
7 52 50 40 47 46 45 51
17 96 95 94 93 92 91 90 85 87 32 31 30 29 28 27 26 88
9 6 7 8 0 1 2 3 4 5
5 50 53 20 48 40
11 32 87 85 84 83 82 66 86 45 44 43
5 54 55 52 66 67
19 73 74 75 76 77 78 79 80 81 72 71 70 69 68 66 82 83 84 85
17 64 63 62 61 60 59 58 57 56 54 67 66 68 69 70 71 72
19 96 88 89 81 80 79 78 77 76 75 74 73 85 90 91 92 93 94 95
4 54 50 52 55
